<svg xmlns="http://www.w3.org/2000/svg" viewBox="0 0 408.38 124.76"><defs><style>.ff4a1922-cf73-4da4-b460-623eed46e068{fill:#59c0ed;}.\33 9cd9de7-1c91-4fd1-9ea6-6cdd55859b2d{fill:#42b3e6;}.a78f95d1-c583-4b73-8382-40db346d0f0f{fill:#43b2e6;}</style></defs><title>logo-共享56</title><g id="f513c591-850f-4170-93ac-86c3b0437429" data-name="by z01.com"><g id="2c9e22d2-3444-479c-907f-aba456d1b52b" data-name="logo"><g id="f1ef056a-1856-458a-afd6-e4433849496f" data-name="icon"><path class="ff4a1922-cf73-4da4-b460-623eed46e068" d="M121.17,51.56c-27.54-8.76-55.78-8-84.56,0V83.69l42.63,16.38,41.93-16.38Z"/><polygon class="ff4a1922-cf73-4da4-b460-623eed46e068" points="8.77 93.09 79.24 110.12 149.35 93.43 149.35 81.58 79.5 106.09 8.77 81.58 8.77 93.09"/><path class="ff4a1922-cf73-4da4-b460-623eed46e068" d="M155.31,98.1l-76,18.24L2.62,98c-2.86,2.38-3,5-2.26,7.79l78.88,19,78.87-18.42C159,103,158.33,100.17,155.31,98.1Z"/><path class="ff4a1922-cf73-4da4-b460-623eed46e068" d="M34.32,48.75c30.87-9.54,61.18-10.49,90.72,0v9.89l17.9-10.06V60.83l-5.85,5.84,7.55,7.55,7.55-7.55-6.84-6.84V47.22l8.94-5L79,0,4.72,42.47l29.6,16.65Z"/></g><path class="39cd9de7-1c91-4fd1-9ea6-6cdd55859b2d" d="M203.4,16.1h9.38c.43,0,.65.76.65,2.26h26.18c.43,0,.65.33.65,1q-1,10-2.59,10h-2.91v.32c3.24.43,4.85,1,4.85,1.62v6.46a.85.85,0,0,1-1,1h-37.5a7.81,7.81,0,0,1-1.62,2.91H218c.65,0,1,.22,1,.65V71.38q0,9.06-5.82,9.06H201.46a.57.57,0,0,1-.64-.65V73.65a.57.57,0,0,1,.64-.65h3.88a5.52,5.52,0,0,1,1.62.32c.86-.43,1.29-.85,1.29-1.29V49.72H196a6.51,6.51,0,0,1-3.56,1.3H176.25a.57.57,0,0,1-.65-.65V43.9a.57.57,0,0,1,.65-.64H185q2.58,0,4.52-4.53H177.22a.85.85,0,0,1-1-1V31.62c.21-.65.53-1,1-1h53.34c.43,0,.86-.43,1.3-1.29-2.16,0-3.24-.33-3.24-1V26.77H186.27c0,1.51-.32,2.26-1,2.26h-9.05c-.44,0-.65-.32-.65-1V19a.57.57,0,0,1,.65-.65h26.51C202.76,16.86,203,16.1,203.4,16.1ZM192.74,52.63h10.34V53q-11,13.26-13.25,13.25H176.25c-.44,0-.65-.32-.65-1V58.13a.57.57,0,0,1,.65-.65h9.05a.29.29,0,0,1,.32.33Q187.89,57.48,192.74,52.63Zm1.61,13.58h9.7v.33q-9.69,13.58-13.25,13.57a18,18,0,0,1-3.56.33h-11a.57.57,0,0,1-.65-.65V73.65a.57.57,0,0,1,.65-.65H184a2.92,2.92,0,0,1,1.29.32C186.8,73.32,189.83,71,194.35,66.21ZM230.24,41h8.4q-5.49,12.61-9.37,12.61h-8.08c-.65,0-1-.21-1-.64V46.17a1,1,0,0,1,1-.65h5.17Zm-8.41,15.85h8.73q1,0,2.59,15.19l.64.65h5.5a.57.57,0,0,1,.65.64v6.47a.58.58,0,0,1-.65.65h-9q-6.8,0-6.79-7.44Q221.83,59.43,221.83,56.84Z"/><path class="39cd9de7-1c91-4fd1-9ea6-6cdd55859b2d" d="M260.63,13.51H271c.65,0,1,.22,1,.65V39.38h37.51c1.72-1.51,2.8-2.27,3.23-2.27,5,1.52,7.44,2.59,7.44,3.24v9.37a.86.86,0,0,1-1,1H271.94V67.83h9.38c.65,0,1,.22,1,.64v9.06c0,.43-.32.64-1,.64H268.71q-8.73,0-8.73-6.46v-21h-3.55c-.44,0-.65-.32-.65-1V40.35c0-.65.21-1,.65-1H260V14.16A.57.57,0,0,1,260.63,13.51ZM274.53,53H289.4q2,0,14.55,11.31c3,2.38,5.5,3.56,7.44,3.56h7.76c.64,0,1,.22,1,.64v8.41a.86.86,0,0,1-1,1H307.51q-7.77,0-13.9-6.79-17.46-15.2-19.73-17.78Zm31-39.45h14.22a.58.58,0,0,1,.65.65Q296.2,32.6,293,34.2a46.18,46.18,0,0,1-7.76.65h-8.08a.57.57,0,0,1-.65-.65V26.12a.57.57,0,0,1,.65-.64h5.17q6.46,0,17.78-9.38C303.09,14.38,304.92,13.51,305.57,13.51Z"/><path class="39cd9de7-1c91-4fd1-9ea6-6cdd55859b2d" d="M337.25,21.27h18.43c1.72,0,2.69-.53,2.91-1.61h2.59l-1.3,9.7H340.16l-.32,10a23.32,23.32,0,0,1,6.79-1q17.13,1,18.1,17.13-1.29,16.82-20.37,17.78Q333.7,73,333.05,67.18q.31-4.2,4.2-4.2,2.91,0,5.17,3.88,2.26,3.56,4.85,3.55,7.11-.63,7.76-11-.31-11.64-10-12.28a14.45,14.45,0,0,0-6.47,1.61l-2.26-1.29Z"/><path class="39cd9de7-1c91-4fd1-9ea6-6cdd55859b2d" d="M403.85,22.57q-15.19,5.49-18.1,21a15.1,15.1,0,0,1,8.73-2.91q13.25.66,13.9,15.84-1,16.17-16.49,16.81-16.81-.64-17.78-21Q375.4,26.12,402.24,20Zm-12,22a10,10,0,0,0-6.79,2.91v1.29c-.22,2.38-.32,4.53-.32,6.47q0,15.52,6.79,15.52,6.78.33,6.14-13.26Q398.36,44.24,391.89,44.55Z"/><path class="a78f95d1-c583-4b73-8382-40db346d0f0f" d="M194.57,101v2.23H178.42V101Z"/><path class="a78f95d1-c583-4b73-8382-40db346d0f0f" d="M214.61,101v2.23H198.46V101Z"/><path class="a78f95d1-c583-4b73-8382-40db346d0f0f" d="M219.92,91.21h3.53c.24,0,.47.51.71,1.53h1.53c.16,0,.36-.51.59-1.53h3.3a.21.21,0,0,1,.24.24,5.18,5.18,0,0,1-.24,1.29h13.09c.24.08.35.2.35.36v21.34a1.44,1.44,0,0,1-1.29.82H234c-.16,0-.24-.12-.24-.35V112.2A.21.21,0,0,1,234,112h5c.23-.08.35-.35.35-.83V96.52H229q-2.36,18.27-2.71,18.27a3.41,3.41,0,0,1-1.77.59h-5.07c-.23,0-.35-.08-.35-.24V112.2a.38.38,0,0,1,.35-.24h2.95c.79,0,1.18-1,1.18-3.07q1.65-11.43,1.65-12.37h-6q-.24,0-.24-.36V93.1c0-.24.43-.36,1.3-.36l-.59-1.41Zm10,8.72q6,3,7.78,6.72c-2.52,1.5-4.21,2.24-5.07,2.24q-.94-3.52-2.83-9Z"/><path class="a78f95d1-c583-4b73-8382-40db346d0f0f" d="M259.06,91.33h3.42c.15,0,.23.27.23.82h9.55q.24,0,.24.36c-.24,2.43-.55,3.65-.95,3.65h-1.06v.12c1.18.16,1.77.35,1.77.59v2.36a.31.31,0,0,1-.35.35H258.23a2.93,2.93,0,0,1-.59,1.06h6.72q.36,0,.36.24v10.61q0,3.3-2.13,3.3h-4.24a.21.21,0,0,1-.24-.24v-2.24c0-.16.08-.23.24-.23h1.41a1.87,1.87,0,0,1,.59.12q.48-.24.48-.48v-8.13h-4.48a2.47,2.47,0,0,1-1.3.47h-5.9a.21.21,0,0,1-.23-.24v-2.35a.21.21,0,0,1,.23-.24h3.19q.94,0,1.65-1.65h-4.48a.32.32,0,0,1-.36-.35V97q.12-.36.36-.36H269c.16,0,.31-.15.47-.47-.78,0-1.18-.12-1.18-.35v-.59H252.81c0,.55-.12.82-.36.82h-3.3c-.15,0-.23-.11-.23-.35v-3.3a.21.21,0,0,1,.23-.24h9.67C258.82,91.6,258.9,91.33,259.06,91.33Zm-3.89,13.32h3.77v.12q-4,4.83-4.83,4.83h-5c-.15,0-.23-.12-.23-.35v-2.6a.21.21,0,0,1,.23-.23h3.3a.11.11,0,0,1,.12.12A6.26,6.26,0,0,0,255.17,104.65Zm.59,4.95h3.53v.12c-2.35,3.3-4,5-4.83,5a6.53,6.53,0,0,1-1.3.12h-4a.21.21,0,0,1-.23-.24v-2.24a.2.2,0,0,1,.23-.23H252a1,1,0,0,1,.47.12C253,112.2,254.11,111.33,255.76,109.6Zm13.08-9.19h3.07q-2,4.59-3.42,4.59h-2.95c-.23,0-.35-.07-.35-.23v-2.48a.38.38,0,0,1,.35-.23h1.89Zm-3.06,5.77H269q.36,0,.94,5.54l.24.24h2a.21.21,0,0,1,.24.24v2.35a.21.21,0,0,1-.24.24h-3.3c-1.65,0-2.47-.91-2.47-2.71C266,108.78,265.78,106.81,265.78,106.18Z"/><path class="a78f95d1-c583-4b73-8382-40db346d0f0f" d="M279.92,90.38h3.78c.23,0,.35.08.35.24v9.2h13.68c.63-.55,1-.83,1.18-.83,1.8.55,2.71.94,2.71,1.18v3.42a.32.32,0,0,1-.36.35H284.05v6.25h3.42c.24,0,.35.08.35.24v3.3c0,.15-.11.23-.35.23h-4.6c-2.12,0-3.18-.78-3.18-2.35v-7.67h-1.3c-.16,0-.23-.12-.23-.35v-3.42c0-.24.07-.35.23-.35h1.3v-9.2A.21.21,0,0,1,279.92,90.38ZM285,104.77h5.43q.7,0,5.3,4.12a4.88,4.88,0,0,0,2.71,1.3h2.83q.36,0,.36.24v3.06a.32.32,0,0,1-.36.36H297a6.7,6.7,0,0,1-5.07-2.48q-6.36-5.53-7.19-6.48Zm11.32-14.39h5.19a.21.21,0,0,1,.24.24q-8.85,6.72-10,7.31a16.78,16.78,0,0,1-2.82.24h-2.95a.21.21,0,0,1-.24-.24V95a.21.21,0,0,1,.24-.23h1.88q2.37,0,6.49-3.42A7.33,7.33,0,0,1,296.31,90.38Z"/><path class="a78f95d1-c583-4b73-8382-40db346d0f0f" d="M310.22,91.8h3.42a.21.21,0,0,1,.24.23,2,2,0,0,0-.12.48h5.78c.23,0,.35.08.35.23V95a18.13,18.13,0,0,1-1.3,3.19h.71a.36.36,0,0,1,.24.35v15.09c0,1.18-.83,1.77-2.48,1.77H316c-.23,0-.35-.08-.35-.24V112.9c0-.16.27-.31.82-.47a.79.79,0,0,0,.24-.59v-.35h-1.3v3.42c0,.23-.08.35-.23.35h-2.6c-.16,0-.23-.12-.23-.35v-3.42h-1.3v3.65a.21.21,0,0,1-.24.24h-2.35a.21.21,0,0,1-.24-.24V98.52c0-.24.08-.35.24-.35h5.89a11.52,11.52,0,0,0,1.65-2.6h-3.77c0,.71-.71,1.22-2.12,1.53H308a.2.2,0,0,1-.23-.23V94.28q0-.24,1.41-.36A7.79,7.79,0,0,1,310.22,91.8Zm.83,9.43v2.24h1.3v-2.24Zm0,5.19v2.24h1.3v-2.24Zm4.36-5.42v2.47h1.3V101Zm0,5.42v2.24h1.3v-2.24Zm11.32-4.6h2.59c.16,0,.24.2.24.59l.59-.47c.86.23,1.33.47,1.41.71v2.59a.21.21,0,0,1-.23.24h-1.77v4.83l.59-.35c.94.31,1.41.59,1.41.82v2.12a.21.21,0,0,1-.23.24h-1.77v1.77c0,.23-.08.35-.24.35h-2.59a.31.31,0,0,1-.35-.35v-1.65H320.6q-.36,0-.36-.24V110.9c0-.16.24-.24.71-.24v-7.9a.39.39,0,0,1,.36-.23h5.07C326.38,102.06,326.49,101.82,326.73,101.82Zm-6-9.79h10.37q.36.12.36.36V99.7c0,1.1-.71,1.73-2.13,1.88h-2.94c-.16,0-.24-.11-.24-.35V98.87a.21.21,0,0,1,.24-.23h2.12V94.86h-2.36q-.24,0-1.18,5.43a2.45,2.45,0,0,1-2.12,1.29h-2.12c-.24,0-.36-.11-.36-.35V98.87c0-.15.47-.27,1.42-.35.47-2.2.71-3.42.71-3.66h-1.77c-.24,0-.36-.07-.36-.23V92.39Q320.48,92,320.72,92Zm3.18,13.45v4.83c0,.24.08.35.24.35h2.24v-5.18Z"/><path class="a78f95d1-c583-4b73-8382-40db346d0f0f" d="M342.29,91.68h2.6a.21.21,0,0,1,.23.24v2.36h.95a.37.37,0,0,1,.23.35v2.71a.21.21,0,0,1-.23.24h-.95v17.33a.21.21,0,0,1-.23.23h-2.6a.2.2,0,0,1-.23-.23V97.58h-1.42v16.5a.21.21,0,0,1-.23.24h-2.72a.21.21,0,0,1-.23-.24V92.27c0-.24.08-.35.23-.35h2.48c.24.08.35.19.35.35v2h1.54V91.92C342.06,91.76,342.13,91.68,342.29,91.68Zm8,0h2.83c.23,0,.35.16.35.47q-.12,1.65-.12,1.77h3.78l-.47-1.77v-.23h.11A10.13,10.13,0,0,1,361,95.57v.12a5.24,5.24,0,0,1-2.71,1.41v15.1h2a.36.36,0,0,1,.24.35v2.36a.21.21,0,0,1-.24.23h-3.54c-1.33,0-2-.63-2-1.88V97.1H353q-1.18,17.34-1.89,17.34a2.87,2.87,0,0,1-2.12.7h-2.35a.21.21,0,0,1-.24-.23v-2.13a.21.21,0,0,1,.24-.23h1.41c.39,0,.71-2.63.94-7.9.08-.08.32-2.59.71-7.55H347a.3.3,0,0,1-.35-.35V94.16a.36.36,0,0,1,.35-.24h2.83V93.8C349.84,92.39,350,91.68,350.31,91.68Z"/><path class="a78f95d1-c583-4b73-8382-40db346d0f0f" d="M382,101v2.23H365.87V101Z"/><path class="a78f95d1-c583-4b73-8382-40db346d0f0f" d="M402.07,101v2.23H385.91V101Z"/></g></g></svg>